<svg width="1500" height="726" viewBox="0 0 1500 726" fill="none" xmlns="http://www.w3.org/2000/svg">
<path d="M1537.97 178.215C1482.9 185.149 1388.7 268.355 1345.29 302.105C1310.9 328.847 1276.74 355.163 1236.26 372.186C1206.13 384.853 1145.69 403.691 1142.33 351.826C1141.71 342.397 1152.22 312.108 1161.32 332.538C1174.3 361.671 1176.24 396.807 1163.95 426.538C1142.75 477.808 1086.18 504.606 1038.74 525.804C879.972 596.748 710.228 571.844 543.936 547.024C483.519 538.006 412.663 525.573 352.455 543.882C336.456 548.747 306.692 558.593 312.844 580.814C319.303 604.147 396.507 559.074 405.047 552.552C422.304 539.373 432.09 519.929 430.656 497.978C427.735 453.246 385.449 418.916 348.415 399.603C288.939 368.585 220.114 378.286 160.369 402.195C106.449 421.001 -1.39097 462.012 -1.39097 475.612" stroke="black" stroke-width="2.5" stroke-linecap="round" stroke-linejoin="round"/>
</svg>
