<svg width="333" height="786" viewBox="0 0 333 786" fill="none" xmlns="http://www.w3.org/2000/svg">
<g filter="url(#filter0_f)">
<rect width="182.954" height="171.15" transform="matrix(0.834114 -0.551592 0.834114 0.551592 19 236.32)" fill="url(#paint0_linear)"/>
<rect width="171.933" height="578.946" transform="matrix(0.834114 0.551592 -1.92341e-08 1 19 236.124)" fill="url(#paint1_linear)"/>
<g filter="url(#filter1_d)">
<rect width="182.954" height="579.608" transform="matrix(0.834114 -0.551592 1.92341e-08 1 161.956 330.288)" fill="url(#paint2_linear)"/>
</g>
</g>
<rect width="182.954" height="171.15" transform="matrix(0.834114 -0.551592 0.834114 0.551592 19 231.916)" fill="url(#paint3_linear)"/>
<g filter="url(#filter2_d)">
<rect width="182.954" height="579.608" transform="matrix(0.834114 -0.551592 1.92341e-08 1 161.955 325.987)" fill="url(#paint4_linear)"/>
</g>
<rect width="171.439" height="577.283" transform="matrix(0.834114 0.551592 -1.92341e-08 1 19 231)" fill="url(#paint5_linear)"/>
<path opacity="0.4" d="M223.618 216.997L200.126 201.439C198.431 200.313 198.652 198.361 200.617 197.067L215.846 187L245.469 206.621L230.24 216.687C228.275 217.976 225.328 218.117 223.618 216.997Z" fill="#D6D8E5"/>
<path d="M225.74 215.574L202.238 200.038C200.548 198.913 200.765 196.96 202.73 195.666L217.959 185.6L247.591 205.198L232.362 215.264C230.392 216.553 227.435 216.693 225.74 215.574Z" fill="#B1B4C4"/>
<path d="M247.572 205.198V204.168L246.201 205.074L247.572 205.198Z" fill="#B1B4C4"/>
<path d="M201.104 198.187V197.14L202.509 197.81L201.104 198.187Z" fill="#B1B4C4"/>
<path d="M225.74 214.549L202.238 199.008C200.548 197.883 200.765 195.936 202.73 194.642L217.959 184.559L247.591 204.151L232.362 214.217C230.392 215.506 227.435 215.669 225.74 214.549Z" fill="#D6D8E5"/>
<path d="M218.022 184.62L214.353 170.688L244.305 190.365L247.572 204.168L218.022 184.62Z" fill="#9EA1AF"/>
<path d="M246.702 204.742L247.572 204.179L246.28 202.998L246.702 204.742Z" fill="#9EA1AF"/>
<path d="M217.074 185.144L213.409 171.212L243.361 190.889L246.702 204.742L217.074 185.144Z" fill="#B1B4C4"/>
<path d="M293.121 228.228L177.184 151.557C175.558 150.483 174.237 147.619 174.237 145.109V42.3863C174.237 39.9049 175.553 38.7626 177.184 39.8373L293.121 116.508C294.747 117.583 296.068 120.447 296.068 122.951V225.679C296.068 228.16 294.737 229.303 293.121 228.228Z" fill="#B1B4C4"/>
<path d="M293.705 229.286L294.992 228.436L294.437 224.076L293.705 229.286Z" fill="#B1B4C4"/>
<path d="M174.016 40.4732L175.283 39.6348L177.101 40.822C177.101 40.822 175.165 41.1596 175.136 41.1484C175.106 41.1371 174.016 40.4732 174.016 40.4732Z" fill="#B1B4C4"/>
<path d="M292.05 228.932L176.113 152.261C174.487 151.186 173.166 148.322 173.166 145.813V43.0899C173.166 40.6085 174.487 39.4662 176.113 40.541L292.05 117.212C293.676 118.286 294.997 121.15 294.997 123.654V226.383C294.992 228.864 293.676 230.006 292.05 228.932Z" fill="#E4E7F2"/>
<path d="M291.843 229.061L175.907 152.39C174.281 151.315 172.959 148.451 172.959 145.947V43.2247C172.959 40.7432 174.276 39.601 175.907 40.6757L291.843 117.346C293.469 118.421 294.791 121.285 294.791 123.789V226.512C294.791 229.01 293.469 230.136 291.843 229.061Z" fill="#D6D8E5"/>
<path d="M293.194 222.821L174.428 144.282L174.492 43.6354C174.492 42.6057 175.126 42.1893 175.902 42.7013L291.839 119.372C292.251 119.68 292.593 120.096 292.838 120.585C293.083 121.074 293.224 121.622 293.249 122.185L293.194 222.821Z" fill="white"/>
<path d="M285.841 135.324L180.564 65.7093C180.2 65.4098 179.901 65.0166 179.693 64.5613C179.485 64.1059 179.373 63.6011 179.366 63.0872V54.3826C179.366 53.3754 179.901 52.9083 180.564 53.3472L285.841 122.962C286.206 123.262 286.505 123.656 286.713 124.112C286.921 124.569 287.033 125.075 287.039 125.59V134.289C287.039 135.301 286.504 135.763 285.841 135.324Z" fill="#E9EAF2"/>
<path d="M280.348 158.625L255.604 142.262C255.239 141.963 254.941 141.569 254.733 141.114C254.524 140.659 254.412 140.154 254.405 139.64V121.347C254.405 120.334 254.94 119.873 255.604 120.312L280.348 136.675C280.713 136.974 281.012 137.367 281.22 137.822C281.429 138.277 281.54 138.783 281.547 139.297V157.589C281.527 158.597 280.992 159.064 280.348 158.625Z" fill="#E9EAF2"/>
<path d="M247.734 164.567L185.658 123.491C185.475 123.342 185.326 123.146 185.222 122.918C185.117 122.69 185.062 122.437 185.059 122.18V119.035C185.059 118.528 185.324 118.292 185.658 118.511L247.734 159.587C247.916 159.737 248.065 159.933 248.169 160.161C248.273 160.389 248.329 160.641 248.333 160.898V164.049C248.333 164.55 248.063 164.786 247.734 164.567Z" fill="#E9EAF2"/>
<path d="M241.622 167.976L185.835 131.104C185.654 130.954 185.505 130.757 185.401 130.53C185.297 130.302 185.24 130.05 185.236 129.793V128.223C185.236 127.717 185.506 127.486 185.835 127.706L241.622 164.595C241.805 164.745 241.954 164.941 242.058 165.169C242.162 165.397 242.218 165.649 242.222 165.906V167.47C242.222 167.96 241.952 168.196 241.622 167.976Z" fill="#E9EAF2"/>
<path d="M241.622 173.918L185.835 137.029C185.653 136.879 185.504 136.682 185.4 136.454C185.296 136.227 185.24 135.974 185.236 135.718V134.148C185.236 133.647 185.506 133.411 185.835 133.63L241.622 170.519C241.805 170.669 241.954 170.866 242.058 171.093C242.162 171.321 242.218 171.573 242.222 171.83V173.4C242.222 173.907 241.952 174.137 241.622 173.918Z" fill="#E9EAF2"/>
<path d="M227.361 170.43L185.835 142.971C185.653 142.821 185.504 142.624 185.4 142.397C185.296 142.169 185.24 141.917 185.236 141.66V140.107C185.236 139.6 185.506 139.37 185.835 139.584L227.361 167.042C227.542 167.195 227.69 167.393 227.794 167.621C227.898 167.849 227.955 168.102 227.961 168.359V169.929C227.961 170.418 227.69 170.649 227.361 170.43Z" fill="#E9EAF2"/>
<path d="M280.928 166.232L254.985 149.076C254.802 148.927 254.652 148.731 254.548 148.503C254.444 148.275 254.388 148.022 254.385 147.765V146.195C254.385 145.689 254.651 145.458 254.985 145.678L280.928 162.834C281.11 162.984 281.259 163.18 281.363 163.408C281.467 163.636 281.523 163.888 281.527 164.145V165.715C281.527 166.221 281.257 166.452 280.928 166.232Z" fill="#E9EAF2"/>
<path d="M280.928 172.179L254.985 155.018C254.802 154.869 254.652 154.672 254.548 154.445C254.444 154.217 254.388 153.964 254.385 153.707V152.142C254.385 151.636 254.651 151.4 254.985 151.619L280.928 168.803C281.111 168.953 281.26 169.149 281.364 169.377C281.468 169.605 281.524 169.857 281.527 170.114V171.679C281.527 172.179 281.257 172.393 280.928 172.179Z" fill="#E9EAF2"/>
<path d="M274.134 173.626L254.975 160.96C254.792 160.811 254.642 160.615 254.538 160.387C254.434 160.159 254.378 159.906 254.375 159.649V158.113C254.375 157.606 254.641 157.376 254.975 157.595L274.134 170.255C274.316 170.405 274.466 170.602 274.57 170.829C274.674 171.057 274.73 171.31 274.733 171.567V173.136C274.733 173.615 274.453 173.868 274.134 173.626Z" fill="#E9EAF2"/>
<path d="M280.348 204.427L255.604 188.064C255.239 187.764 254.941 187.371 254.733 186.916C254.524 186.461 254.412 185.956 254.405 185.442V167.149C254.405 166.142 254.94 165.675 255.604 166.114L280.348 182.477C280.712 182.781 281.008 183.179 281.213 183.638C281.418 184.097 281.525 184.605 281.527 185.121V203.414C281.527 204.399 280.992 204.866 280.348 204.427Z" fill="#E9EAF2"/>
<path d="M280.928 212.034L254.985 194.878C254.802 194.729 254.652 194.533 254.548 194.305C254.444 194.077 254.388 193.824 254.385 193.567V192.003C254.385 191.496 254.651 191.26 254.985 191.48L280.928 208.636C281.109 208.788 281.257 208.986 281.361 209.214C281.465 209.443 281.521 209.695 281.527 209.952V211.517C281.527 212.023 281.257 212.254 280.928 212.034Z" fill="#E9EAF2"/>
<path d="M185.821 65.1218C186.721 64.5267 186.72 62.5956 185.82 60.8086C184.919 59.0216 183.459 58.0554 182.559 58.6505C181.659 59.2456 181.66 61.1767 182.561 62.9637C183.461 64.7507 184.921 65.7169 185.821 65.1218Z" fill="#DADCE5"/>
<path d="M238.925 99.228L229.817 93.2073C229.726 93.1319 229.652 93.0332 229.6 92.9188C229.548 92.8045 229.52 92.6779 229.518 92.549V91.1536C229.518 90.9004 229.65 90.7822 229.817 90.8947L238.925 96.9154C239.017 96.989 239.092 97.0866 239.144 97.2001C239.196 97.3137 239.224 97.4398 239.225 97.5681V98.9523C239.225 99.2224 239.083 99.3406 238.925 99.228Z" fill="#DADCE5"/>
<path d="M253.663 108.98L244.555 102.97C244.464 102.896 244.39 102.798 244.338 102.685C244.286 102.571 244.258 102.446 244.256 102.318V100.933C244.256 100.68 244.393 100.562 244.555 100.675L253.663 106.695C253.754 106.771 253.829 106.869 253.881 106.984C253.933 107.098 253.961 107.225 253.963 107.354V108.738C253.963 108.968 253.82 109.087 253.663 108.98Z" fill="#DADCE5"/>
<path d="M268.165 118.567L259.057 112.535C258.965 112.462 258.89 112.364 258.838 112.251C258.786 112.137 258.758 112.011 258.757 111.883V110.498C258.757 110.245 258.89 110.133 259.057 110.24L268.165 116.26C268.256 116.336 268.331 116.434 268.383 116.549C268.435 116.663 268.463 116.79 268.465 116.919V118.303C268.465 118.562 268.332 118.674 268.165 118.567Z" fill="#DADCE5"/>
<path d="M282.903 128.291L273.8 122.27C273.708 122.194 273.634 122.096 273.582 121.981C273.53 121.867 273.502 121.74 273.5 121.612V120.227C273.5 119.974 273.633 119.862 273.8 119.969L282.903 126.04C282.994 126.113 283.069 126.211 283.122 126.325C283.174 126.438 283.201 126.564 283.202 126.693V128.077C283.202 128.291 283.07 128.426 282.903 128.291Z" fill="#DADCE5"/>
<path d="M262.8 138.931L261.061 133.805L257.902 138.959L261.371 141.255L264.225 143.14L270.587 147.349L265.979 133.749L262.8 138.931Z" fill="#DADCE5"/>
<path d="M277.898 142.648C278.712 142.112 278.716 140.369 277.906 138.755C277.096 137.141 275.779 136.267 274.965 136.803C274.151 137.339 274.147 139.082 274.957 140.696C275.767 142.31 277.083 143.184 277.898 142.648Z" fill="#DADCE5"/>
<path d="M262.977 185.408L261.243 180.282L258.08 185.436L261.553 187.732L264.407 189.617L270.769 193.826L266.161 180.226L262.977 185.408Z" fill="#DADCE5"/>
<path d="M277.267 188.564C278.077 188.027 278.078 186.29 277.268 184.684C276.458 183.077 275.144 182.209 274.334 182.745C273.523 183.281 273.522 185.018 274.332 186.625C275.142 188.232 276.456 189.1 277.267 188.564Z" fill="#DADCE5"/>
<path d="M204.537 115.535L202.238 126.08V117.054L204.537 115.535Z" fill="#232733"/>
<path d="M177.759 97.6587L175.46 108.209V99.1836L177.759 97.6587Z" fill="#232733"/>
<path d="M215.571 163.081L160.835 126.884C160.509 126.615 160.241 126.263 160.055 125.854C159.869 125.446 159.77 124.993 159.764 124.532V92.4593C159.764 91.5534 160.256 91.137 160.835 91.5309L215.571 127.728C215.899 127.995 216.167 128.346 216.354 128.754C216.541 129.162 216.641 129.614 216.647 130.074V162.175C216.647 163.059 216.166 163.475 215.571 163.081Z" fill="#E9EAF2"/>
<path d="M176.069 125.477L173.102 116.717L167.698 125.522L173.632 129.45L178.506 132.674L189.387 139.871L181.507 116.615L176.069 125.477Z" fill="#002E87"/>
<path d="M206.637 134.924C208.02 134.009 208.02 131.039 206.635 128.291C205.249 125.544 203.005 124.058 201.621 124.973C200.237 125.888 200.238 128.858 201.623 131.606C203.008 134.353 205.253 135.839 206.637 134.924Z" fill="#002E87"/>
<path d="M201.231 113.346L201.226 101.316L198.249 98.7559V113.346L194.938 115.535L199.738 118.708L204.537 115.535L201.231 113.346Z" fill="#353C4C"/>
<path d="M199.738 118.708L202.238 126.08V117.566V117.054L199.738 118.708Z" fill="#232733"/>
<path d="M194.938 115.535L197.065 122.614L202.238 126.08L199.738 118.709L194.938 115.535Z" fill="#2B303F"/>
<path d="M174.448 95.4758V80.8799H171.471V95.4702L168.16 97.659L172.959 100.838L177.759 97.659L174.448 95.4758Z" fill="#353C4C"/>
<path d="M172.959 100.838L175.46 108.209V99.6956V99.1836L172.959 100.838Z" fill="#232733"/>
<path d="M168.16 97.6587L170.287 104.737L175.46 108.209L172.959 100.838L168.16 97.6587Z" fill="#2B303F"/>
<path opacity="0.4" d="M141.701 163.593L112.049 143.888L76.3196 167.515L108.286 188.751L144.02 165.124V162.063L141.701 163.593Z" fill="#D6D8E5"/>
<path d="M145.464 160.938L112.049 138.841L78.6334 160.938L76.3196 159.407V162.468L112.049 186.101L147.778 162.468V159.407L145.464 160.938Z" fill="#B1B4C4"/>
<path d="M112.049 183.034L76.3196 159.407L112.049 135.78L147.778 159.407L112.049 183.034Z" fill="#E7E9F2"/>
<path d="M111.936 150.658L114.269 149.116V34.999L111.936 36.5408V150.658Z" fill="#B1B4C4"/>
<path d="M112.123 83.102L128.437 112.676L130.771 111.585L114.269 81.7178L112.123 83.102Z" fill="#B1B4C4"/>
<path d="M112.024 88.363L128.349 118.084V112.524L112.024 82.9106V88.363Z" fill="#D6D8E5"/>
<path d="M109.691 149.116L112.024 150.658V36.5408L109.691 34.999V149.116Z" fill="#D6D8E5"/>
<path d="M128.349 161.455L130.682 162.997V48.8801L128.349 47.3384V161.455Z" fill="#D6D8E5"/>
<path d="M130.594 162.997L132.927 161.455V47.3384L130.594 48.8801V162.997Z" fill="#B1B4C4"/>
<path d="M112.024 142.431L128.349 120.042V114.674L112.024 137.097V142.431Z" fill="#D6D8E5"/>
<path d="M112.024 142.431L114.269 141.025L128.349 121.584V119.626L112.024 142.431Z" fill="#B1B4C4"/>
<path d="M112.024 83.1017L128.349 60.7127V55.3447L112.024 77.7675V83.1017Z" fill="#D6D8E5"/>
<path d="M112.024 83.1023L114.269 81.6899L128.349 62.255V60.2969L112.024 83.1023Z" fill="#B1B4C4"/>
<path d="M93.4153 162.98L95.7487 161.438V47.3213L93.4153 48.863V162.98Z" fill="#B1B4C4"/>
<path d="M93.6021 95.4247L109.917 124.994L112.25 123.908L95.7488 94.0405L93.6021 95.4247Z" fill="#B1B4C4"/>
<path d="M93.5037 100.686L109.828 130.401V124.847L93.5037 95.228V100.686Z" fill="#D6D8E5"/>
<path d="M91.175 161.438L93.5036 162.98V48.863L91.175 47.3213V161.438Z" fill="#D6D8E5"/>
<path d="M109.828 173.772L112.162 175.314V61.2026L109.828 59.6553V173.772Z" fill="#D6D8E5"/>
<path d="M112.073 175.314L114.407 173.772V59.6553L112.073 61.2026V175.314Z" fill="#B1B4C4"/>
<path d="M93.5037 154.754L109.828 132.365V126.991L93.5037 149.42V154.754Z" fill="#D6D8E5"/>
<path d="M93.5037 154.754L95.7487 153.342L109.828 133.907V131.943L93.5037 154.754Z" fill="#B1B4C4"/>
<path d="M93.5037 95.4247L109.828 73.0357V67.6621L93.5037 90.0849V95.4247Z" fill="#D6D8E5"/>
<path d="M93.5037 95.4243L95.7487 94.012L109.828 74.5714V72.6133L93.5037 95.4243Z" fill="#B1B4C4"/>
<path d="M112.162 66.9817L88.0754 51.0522L112.162 35.1284L136.248 51.0522L112.162 66.9817Z" fill="#F7DC6B"/>
<path d="M110.368 21.3312L81.8117 40.2147L73.6372 34.8073L102.194 15.9238L110.368 21.3312Z" fill="#353C4C"/>
<path d="M73.6372 42.3808V34.8071L81.8117 40.2145V47.7881L73.6372 42.3808Z" fill="#2B303F"/>
<path d="M81.812 47.7882L110.369 28.9047V21.3311L81.812 40.2146V47.0511" fill="#232733"/>
<path d="M110.368 12.8346L81.8117 31.7181L73.6372 26.3108L102.194 7.42725L110.368 12.8346Z" fill="#353C4C"/>
<path d="M73.6372 33.8898V26.3105L81.8117 31.7179V39.2972L73.6372 33.8898Z" fill="#2B303F"/>
<path d="M81.812 39.2978L110.369 20.4143V12.835L81.812 31.7185V38.5607" fill="#232733"/>
<path d="M88.7828 36.3207L71.073 24.6845V20.4419L88.7828 32.005V36.3207Z" fill="#D6D8E5"/>
<path d="M114.407 48.8518L71.073 20.4421L74.2809 18.3208L117.615 46.7305L114.407 48.8518Z" fill="#E7E9F2"/>
<path d="M108.266 29.6135L86.0171 14.8713V10.623L108.266 24.2793V29.6135Z" fill="#D6D8E5"/>
<path d="M125.141 36.0622L86.0171 10.6291L89.225 8.50781L128.349 33.9409L125.141 36.0622Z" fill="#E7E9F2"/>
<path d="M97.8711 18.4556V22.6982L99.394 34.9139L101.654 36.5232L97.8711 18.4556Z" fill="#D6D8E5"/>
<path d="M104.567 38.335L101.639 20.9482L97.8711 18.4556L100.155 35.5892L104.567 38.335Z" fill="#E7E9F2"/>
<path d="M97.871 22.6984L86.1841 26.2264L80.1809 22.2539L97.3601 18.1069L97.871 18.4558V22.6984Z" fill="#B1B4C4"/>
<path d="M97.8709 18.456L81.5956 23.1938L78.0979 20.8812L94.5009 16.0815L97.8709 18.456Z" fill="#E7E9F2"/>
<path d="M112.162 31.8589L88.0754 15.9295L112.162 0L136.248 15.9295L112.162 31.8589Z" fill="#E7E9F2"/>
<path d="M88.0754 65.1191V15.9297L112.162 31.8591V81.0486L88.0754 65.1191Z" fill="#D6D8E5"/>
<path d="M136.248 15.9297V65.1191L112.162 81.0486V31.8535L136.248 15.9297Z" fill="#B1B4C4"/>
<path d="M112.162 48.9923L98.3328 39.8487L93.887 23.6436L112.162 35.7299V48.9923Z" fill="#002E87"/>
<path d="M136.248 19.8003V33.0626L112.162 48.9977V35.7354L136.248 19.8003Z" fill="#082255"/>
<path d="M219.565 123.379L115.345 54.456V50.2134L219.565 119.136V123.379Z" fill="#D6D8E5"/>
<path d="M219.565 119.136L115.345 50.219L118.553 48.0977L222.773 117.015L219.565 119.136Z" fill="#E7E9F2"/>
<path d="M234.509 113.566L130.289 44.643V40.4004L234.509 109.323V113.566Z" fill="#D6D8E5"/>
<path d="M234.509 109.323L130.289 40.4001L133.497 38.2788L237.717 107.201L234.509 109.323Z" fill="#E7E9F2"/>
<path d="M237.717 111.455L219.565 123.379V119.13L237.717 107.213V111.455Z" fill="#B1B4C4"/>
<path d="M237.717 107.213L219.575 119.136L216.858 117.341L235 105.418L237.717 107.213Z" fill="#E7E9F2"/>
<path d="M221.447 104.917L209.755 108.445L203.751 104.473L220.931 100.326L221.447 100.675V104.917Z" fill="#B1B4C4"/>
<path d="M221.446 100.675L205.171 105.413L201.673 103.094L218.071 98.3003L221.446 100.675Z" fill="#E7E9F2"/>
<path d="M195.071 83.2539V87.4965L196.594 99.7123L198.853 101.316L195.071 83.2539Z" fill="#D6D8E5"/>
<path d="M201.767 103.133L198.839 85.7466L195.071 83.2539L197.36 100.387L201.767 103.133Z" fill="#E7E9F2"/>
<path d="M195.071 87.4967L183.384 91.0247L177.381 87.0522L194.56 82.9053L195.071 83.2541V87.4967Z" fill="#B1B4C4"/>
<path d="M195.071 83.2544L178.8 87.9921L175.303 85.6795L191.701 80.8799L195.071 83.2544Z" fill="#E7E9F2"/>
<path d="M168.607 65.7378V69.9804L170.125 82.1962L172.39 83.8054L168.607 65.7378Z" fill="#D6D8E5"/>
<path d="M175.303 85.6173L172.375 68.2305L168.607 65.7378L170.891 82.8714L175.303 85.6173Z" fill="#E7E9F2"/>
<path d="M168.607 69.9801L156.92 73.5081L150.917 69.5356L168.096 65.3887L168.607 65.7375V69.9801Z" fill="#B1B4C4"/>
<path d="M168.607 65.7378L152.332 70.4755L148.834 68.1629L165.237 63.3633L168.607 65.7378Z" fill="#E7E9F2"/>
<path d="M142.143 48.2329V52.4755L143.661 64.6913L145.925 66.2949L142.143 48.2329Z" fill="#D6D8E5"/>
<path d="M148.834 68.1124L145.911 50.7256L142.143 48.2329L144.427 65.3665L148.834 68.1124Z" fill="#E7E9F2"/>
<path d="M142.143 52.4757L130.456 56.0037L124.453 52.0312L141.632 47.8843L142.143 48.2331V52.4757Z" fill="#B1B4C4"/>
<path d="M142.143 48.2329L125.868 52.9707L122.37 50.6581L138.768 45.8584L142.143 48.2329Z" fill="#E7E9F2"/>
<path opacity="0.4" d="M117.335 281.34L103.668 272.382L124.124 258.973L137.791 267.925L117.335 281.34Z" fill="#D6D8E5"/>
<path d="M117.62 263.283L106.301 255.794L117.62 248.311L128.938 255.8L117.62 263.283Z" fill="#D6D8E5"/>
<path d="M117.62 278.257L106.301 270.767V255.794L117.62 263.284V278.257Z" fill="#B1B6C4"/>
<path d="M128.938 270.767L117.619 278.257V263.284L128.938 255.794V270.767Z" fill="#C4C7D6"/>
<path d="M132.834 266.057C133.813 266.368 134.861 266.223 135.747 265.652C136.449 265.652 140.261 263.807 140.782 265.376C141.234 266.755 139.583 268.027 138.699 268.269C136.773 268.831 135.349 269.906 134.578 270.092C134.003 270.232 133.256 270.322 132.794 269.805C132.244 269.18 132.293 266.879 132.834 266.057Z" fill="#212121"/>
<path d="M134.578 269.709C135.349 269.523 136.773 268.426 138.699 267.891C139.441 267.683 140.713 266.766 140.841 265.641C141.013 266.907 139.524 268.032 138.699 268.257C136.773 268.82 135.349 269.894 134.578 270.08C134.003 270.221 133.256 270.311 132.794 269.793C132.678 269.64 132.592 269.46 132.544 269.264C132.829 269.515 133.161 269.686 133.515 269.763C133.868 269.84 134.232 269.822 134.578 269.709V269.709Z" fill="#173B8E"/>
<path d="M125.956 261.865C126.937 262.177 127.986 262.031 128.874 261.46C129.576 261.46 133.388 259.615 133.904 261.185C134.361 262.563 132.711 263.835 131.826 264.077C129.901 264.611 128.476 265.714 127.7 265.9C127.125 266.04 126.378 266.13 125.921 265.613C125.371 264.988 125.415 262.687 125.956 261.865Z" fill="#212121"/>
<path d="M127.7 265.517C128.476 265.331 129.901 264.234 131.826 263.699C132.563 263.491 133.841 262.574 133.968 261.449C134.14 262.715 132.647 263.84 131.826 264.065C129.901 264.6 128.476 265.703 127.7 265.888C127.125 266.029 126.378 266.119 125.921 265.601C125.802 265.45 125.714 265.269 125.666 265.072C125.951 265.323 126.284 265.493 126.637 265.57C126.99 265.648 127.354 265.629 127.7 265.517V265.517Z" fill="#173B8E"/>
<path d="M115.252 256.43C118.199 257.927 121.029 258.163 123.323 256.751L125.691 255.186C125.833 258.686 125.966 262.051 125.966 262.051C125.966 262.051 127.784 263.627 129.198 262.22C129.198 262.22 129.493 257.308 129.793 252.474L132.279 250.831C132.219 251.088 132.186 251.353 132.18 251.619C132.18 252.542 132.755 266.192 132.755 266.192C132.755 266.192 134.588 267.441 136.002 266.035C136.002 266.035 136.955 250.212 137.172 247.686C137.417 244.844 134.661 243.443 132.922 244.175C132.514 244.338 131.517 244.766 130.255 245.3C130.309 244.507 130.353 243.893 130.382 243.544C130.633 240.697 127.877 239.296 126.133 240.028C124.541 240.692 113.812 245.328 113.812 245.328C113.879 246.508 114.005 247.682 114.191 248.845L109.956 248.44C109.7 252.981 112.284 254.933 115.252 256.43ZM122.655 248.552L125.489 246.679C125.439 246.907 125.408 247.141 125.396 247.376L122.655 248.552Z" fill="#002E87"/>
<path d="M107.632 234.564C107.632 234.564 107.981 240.602 108.674 241.474C109.366 242.346 111.705 242.937 111.705 242.937L113.503 246.313C113.503 246.313 111.847 235.537 111.503 235.279C111.159 235.02 107.632 234.564 107.632 234.564Z" fill="#FFCEA9"/>
<path d="M111.096 227.885C110.658 227.652 110.161 227.611 109.699 227.771C109.236 227.931 108.842 228.28 108.59 228.751C107.927 230.012 107.239 234.322 107.175 235.059C107.175 235.059 108.104 236.533 109.499 236.286L111.096 227.885Z" fill="#EDEDED"/>
<path d="M111.729 227.935C112.643 227.986 113.321 228.256 113.434 227.935C113.532 227.398 113.6 226.855 113.64 226.309C113.537 226.005 113.444 225.679 113.444 225.679C112.304 224.874 111.94 223.428 111.788 221.808C111.533 218.994 112.864 216.518 115.325 216.226C117.639 215.95 119.339 217.813 119.796 220.367C120.036 221.633 120.528 224.019 119.869 226.095C119.501 227.254 119.024 228.177 118.553 228.346C118.094 228.331 117.636 228.284 117.182 228.205V228.205C117.182 228.205 117.059 228.987 116.976 229.488C116.892 229.989 116.927 230.259 117.796 230.872C118.666 231.486 116.475 232.757 115.045 232.634C113.616 232.51 111.999 231.508 111.552 230.456C111.061 229.297 111.105 227.885 111.729 227.935Z" fill="#FFCEA9"/>
<path d="M134.808 246.403C134.809 246.552 134.776 246.699 134.711 246.828C134.646 246.958 134.553 247.065 134.44 247.14L127.499 251.731C127.386 251.806 127.258 251.845 127.128 251.845C126.997 251.845 126.87 251.806 126.757 251.731L117.02 245.294C116.908 245.22 116.815 245.113 116.75 244.985C116.686 244.857 116.652 244.711 116.652 244.563V244.495L134.808 246.403Z" fill="#E5E5E5"/>
<path d="M134.445 247.14L127.503 251.731C127.39 251.807 127.261 251.845 127.13 251.844V246.403H134.813C134.814 246.552 134.781 246.699 134.716 246.828C134.651 246.958 134.558 247.065 134.445 247.14V247.14Z" fill="#E5E5E5"/>
<path d="M127.387 251.315C127.308 251.367 127.218 251.394 127.127 251.394C127.035 251.394 126.945 251.367 126.866 251.315L116.761 244.624C116.628 244.54 116.628 244.399 116.761 244.315L124.209 239.386L134.82 246.402L127.387 251.315Z" fill="#F4F4F4"/>
<path d="M120.906 246.403L120.955 246.436L124.197 248.58L125.976 247.404L126.03 247.37L122.733 245.193L120.906 246.403Z" fill="#BFBFBF"/>
<path d="M120.956 246.437L124.198 248.581L125.976 247.405L122.734 245.261L120.956 246.437Z" fill="#E5E5E5"/>
<path d="M132.057 246.751L132.549 247.061C132.572 247.073 132.597 247.08 132.622 247.08C132.648 247.08 132.673 247.073 132.696 247.061L133.143 246.763C133.187 246.734 133.192 246.689 133.143 246.667L132.652 246.357C132.629 246.344 132.604 246.336 132.578 246.336C132.552 246.336 132.527 246.344 132.504 246.357L132.057 246.65C132.028 246.684 132.023 246.723 132.057 246.751Z" fill="#173B8E"/>
<path d="M131.399 246.312L131.891 246.622C131.913 246.636 131.938 246.643 131.964 246.643C131.99 246.643 132.015 246.636 132.038 246.622L132.485 246.324C132.529 246.295 132.534 246.25 132.485 246.228L131.994 245.918C131.971 245.905 131.946 245.897 131.92 245.897C131.894 245.897 131.869 245.905 131.846 245.918L131.399 246.217C131.365 246.245 131.36 246.29 131.399 246.312Z" fill="#173B8E"/>
<path d="M130.736 245.89L131.227 246.2C131.25 246.214 131.275 246.221 131.301 246.221C131.326 246.221 131.352 246.214 131.374 246.2L131.822 245.907C131.866 245.874 131.871 245.834 131.822 245.806L131.355 245.497C131.332 245.484 131.307 245.478 131.281 245.478C131.256 245.478 131.23 245.484 131.207 245.497L130.76 245.795C130.701 245.806 130.697 245.851 130.736 245.89Z" fill="#173B8E"/>
<path d="M130.073 245.44L130.564 245.75C130.588 245.762 130.614 245.768 130.64 245.768C130.666 245.768 130.692 245.762 130.716 245.75L131.163 245.457C131.208 245.457 131.212 245.384 131.163 245.356L130.672 245.046C130.648 245.033 130.622 245.025 130.596 245.025C130.569 245.025 130.543 245.033 130.52 245.046L130.073 245.339C130.024 245.367 130.024 245.412 130.073 245.44Z" fill="#173B8E"/>
<path d="M129.409 245.001L129.901 245.311C129.923 245.324 129.949 245.332 129.974 245.332C130 245.332 130.025 245.324 130.048 245.311L130.495 245.018C130.539 244.99 130.544 244.945 130.495 244.922L130.004 244.613C129.98 244.599 129.954 244.592 129.928 244.592C129.901 244.592 129.875 244.599 129.852 244.613L129.409 244.905C129.38 244.928 129.375 244.973 129.409 245.001Z" fill="#173B8E"/>
<path d="M128.751 244.563L129.243 244.872C129.266 244.885 129.291 244.891 129.316 244.891C129.342 244.891 129.367 244.885 129.39 244.872L129.837 244.574C129.881 244.574 129.886 244.501 129.837 244.478L129.346 244.169C129.323 244.155 129.298 244.148 129.272 244.148C129.246 244.148 129.221 244.155 129.198 244.169L128.751 244.462C128.717 244.495 128.712 244.535 128.751 244.563Z" fill="#173B8E"/>
<path d="M128.088 244.123L128.579 244.433C128.602 244.447 128.627 244.454 128.653 244.454C128.678 244.454 128.704 244.447 128.726 244.433L129.174 244.135C129.218 244.106 129.223 244.061 129.174 244.039L128.707 243.729C128.684 243.716 128.659 243.708 128.633 243.708C128.607 243.708 128.582 243.716 128.559 243.729L128.112 244.028C128.058 244.056 128.058 244.101 128.088 244.123Z" fill="#173B8E"/>
<path d="M127.425 243.685L127.916 243.994C127.94 244.008 127.966 244.016 127.992 244.016C128.019 244.016 128.045 244.008 128.068 243.994L128.515 243.702C128.56 243.668 128.56 243.629 128.515 243.601L128.024 243.291C128 243.279 127.974 243.272 127.948 243.272C127.922 243.272 127.896 243.279 127.872 243.291L127.425 243.589C127.39 243.64 127.386 243.64 127.425 243.685Z" fill="#173B8E"/>
<path d="M126.762 243.252L127.253 243.561C127.276 243.573 127.301 243.58 127.327 243.58C127.352 243.58 127.377 243.573 127.4 243.561L127.847 243.269C127.892 243.241 127.897 243.196 127.847 243.167L127.356 242.858C127.333 242.844 127.307 242.837 127.28 242.837C127.254 242.837 127.227 242.844 127.204 242.858L126.762 243.151C126.732 243.179 126.727 243.224 126.762 243.252Z" fill="#173B8E"/>
<path d="M126.094 242.813L126.585 243.122C126.608 243.136 126.633 243.143 126.659 243.143C126.684 243.143 126.71 243.136 126.732 243.122L127.179 242.829C127.224 242.801 127.228 242.756 127.179 242.734L126.688 242.424C126.665 242.411 126.64 242.403 126.614 242.403C126.589 242.403 126.563 242.411 126.541 242.424L126.094 242.717C126.094 242.739 126.064 242.784 126.094 242.813Z" fill="#173B8E"/>
<path d="M125.44 242.374L125.931 242.683C125.954 242.696 125.98 242.702 126.005 242.702C126.031 242.702 126.056 242.696 126.079 242.683L126.526 242.385C126.57 242.357 126.575 242.312 126.526 242.289L126.059 241.98C126.036 241.966 126.011 241.959 125.985 241.959C125.96 241.959 125.934 241.966 125.912 241.98L125.465 242.273C125.406 242.306 125.401 242.346 125.44 242.374Z" fill="#173B8E"/>
<path d="M124.777 241.952L125.268 242.261C125.292 242.275 125.318 242.282 125.344 242.282C125.371 242.282 125.397 242.275 125.42 242.261L125.868 241.963C125.912 241.935 125.912 241.89 125.868 241.867L125.376 241.558C125.353 241.544 125.327 241.537 125.3 241.537C125.274 241.537 125.248 241.544 125.224 241.558L124.777 241.856C124.743 241.867 124.738 241.912 124.777 241.952Z" fill="#173B8E"/>
<path d="M124.129 241.496L124.62 241.806C124.642 241.819 124.668 241.827 124.693 241.827C124.719 241.827 124.744 241.819 124.767 241.806L125.214 241.513C125.258 241.479 125.263 241.44 125.214 241.412L124.723 241.102C124.699 241.09 124.673 241.083 124.647 241.083C124.621 241.083 124.595 241.09 124.571 241.102L124.129 241.4C124.084 241.429 124.079 241.474 124.129 241.496Z" fill="#173B8E"/>
<path d="M123.146 240.826L123.932 241.35C123.955 241.362 123.98 241.369 124.006 241.369C124.031 241.369 124.056 241.362 124.079 241.35L124.527 241.057C124.571 241.029 124.576 240.984 124.527 240.956L123.741 240.438C123.718 240.424 123.693 240.417 123.667 240.417C123.641 240.417 123.616 240.424 123.593 240.438L123.146 240.736C123.102 240.781 123.097 240.826 123.146 240.826Z" fill="#173B8E"/>
<path d="M130.436 246.526L130.927 246.836C130.95 246.848 130.976 246.855 131.001 246.855C131.027 246.855 131.052 246.848 131.075 246.836L131.522 246.537C131.566 246.509 131.571 246.464 131.522 246.442L131.031 246.132C131.008 246.119 130.983 246.111 130.957 246.111C130.931 246.111 130.906 246.119 130.883 246.132L130.436 246.425C130.402 246.453 130.397 246.498 130.436 246.526Z" fill="#173B8E"/>
<path d="M129.773 246.087L130.264 246.397C130.288 246.409 130.314 246.416 130.34 246.416C130.367 246.416 130.393 246.409 130.417 246.397L130.859 246.098C130.903 246.07 130.908 246.025 130.859 246.003L130.367 245.693C130.345 245.68 130.319 245.672 130.294 245.672C130.268 245.672 130.243 245.68 130.22 245.693L129.773 245.992C129.739 246.02 129.734 246.065 129.773 246.087Z" fill="#173B8E"/>
<path d="M129.11 245.648L129.601 245.958C129.625 245.972 129.651 245.979 129.677 245.979C129.704 245.979 129.73 245.972 129.753 245.958L130.196 245.66C130.24 245.631 130.245 245.586 130.196 245.564L129.704 245.254C129.682 245.241 129.656 245.233 129.631 245.233C129.605 245.233 129.58 245.241 129.557 245.254L129.11 245.553C129.076 245.581 129.071 245.626 129.11 245.648Z" fill="#173B8E"/>
<path d="M128.447 245.21L128.913 245.519C128.937 245.533 128.963 245.54 128.989 245.54C129.016 245.54 129.042 245.533 129.066 245.519L129.508 245.221C129.552 245.193 129.557 245.148 129.508 245.125L129.016 244.816C128.994 244.802 128.968 244.795 128.943 244.795C128.917 244.795 128.892 244.802 128.869 244.816L128.422 245.114C128.412 245.142 128.407 245.187 128.447 245.21Z" fill="#173B8E"/>
<path d="M127.788 244.765L128.28 245.074C128.304 245.087 128.33 245.094 128.356 245.094C128.382 245.094 128.408 245.087 128.432 245.074L128.874 244.776C128.918 244.776 128.923 244.703 128.874 244.681L128.383 244.371C128.36 244.357 128.335 244.35 128.309 244.35C128.283 244.35 128.258 244.357 128.235 244.371L127.788 244.664C127.754 244.709 127.749 244.765 127.788 244.765Z" fill="#173B8E"/>
<path d="M127.125 244.338L127.616 244.647C127.64 244.66 127.666 244.666 127.693 244.666C127.719 244.666 127.745 244.66 127.769 244.647L128.211 244.349C128.255 244.321 128.26 244.276 128.211 244.253L127.72 243.944C127.697 243.93 127.672 243.923 127.646 243.923C127.62 243.923 127.595 243.93 127.572 243.944L127.125 244.236C127.076 244.27 127.076 244.31 127.125 244.338Z" fill="#173B8E"/>
<path d="M126.462 243.898L126.953 244.208C126.977 244.22 127.003 244.227 127.029 244.227C127.056 244.227 127.082 244.22 127.106 244.208L127.548 243.91C127.592 243.881 127.597 243.836 127.548 243.814L127.056 243.504C127.034 243.491 127.008 243.483 126.983 243.483C126.957 243.483 126.932 243.491 126.909 243.504L126.462 243.797C126.428 243.831 126.423 243.87 126.462 243.898Z" fill="#173B8E"/>
<path d="M125.799 243.459L126.265 243.769C126.289 243.781 126.315 243.788 126.342 243.788C126.368 243.788 126.394 243.781 126.418 243.769L126.865 243.471C126.904 243.442 126.909 243.397 126.865 243.375L126.374 243.065C126.351 243.052 126.326 243.044 126.3 243.044C126.274 243.044 126.249 243.052 126.226 243.065L125.779 243.364C125.764 243.392 125.759 243.437 125.799 243.459Z" fill="#173B8E"/>
<path d="M125.136 243.021L125.627 243.33C125.65 243.344 125.676 243.351 125.703 243.351C125.729 243.351 125.755 243.344 125.779 243.33L126.226 243.032C126.265 243.004 126.27 242.959 126.226 242.936L125.759 242.627C125.736 242.613 125.71 242.606 125.683 242.606C125.657 242.606 125.631 242.613 125.607 242.627L125.16 242.925C125.111 242.953 125.111 242.998 125.136 243.021Z" fill="#173B8E"/>
<path d="M124.472 242.582L124.964 242.891C124.987 242.905 125.013 242.912 125.04 242.912C125.066 242.912 125.092 242.905 125.116 242.891L125.563 242.593C125.607 242.565 125.607 242.52 125.563 242.498L125.072 242.188C125.048 242.175 125.022 242.169 124.996 242.169C124.969 242.169 124.943 242.175 124.92 242.188L124.472 242.486C124.438 242.514 124.433 242.559 124.472 242.582Z" fill="#173B8E"/>
<path d="M123.809 242.143L124.3 242.452C124.324 242.466 124.35 242.474 124.377 242.474C124.403 242.474 124.429 242.466 124.453 242.452L124.9 242.16C124.944 242.126 124.944 242.081 124.9 242.059L124.408 241.749C124.385 241.737 124.359 241.73 124.332 241.73C124.306 241.73 124.28 241.737 124.256 241.749L123.809 242.047C123.775 242.075 123.77 242.121 123.809 242.143Z" fill="#173B8E"/>
<path d="M123.146 241.704L123.637 242.014C123.661 242.027 123.687 242.035 123.713 242.035C123.74 242.035 123.766 242.027 123.789 242.014L124.236 241.721C124.281 241.687 124.286 241.648 124.236 241.62L123.745 241.31C123.721 241.298 123.695 241.291 123.669 241.291C123.643 241.291 123.617 241.298 123.593 241.31L123.146 241.608C123.111 241.637 123.107 241.682 123.146 241.704Z" fill="#173B8E"/>
<path d="M131.099 246.965L131.885 247.483C131.908 247.497 131.933 247.504 131.959 247.504C131.985 247.504 132.01 247.497 132.033 247.483L132.48 247.19C132.524 247.156 132.529 247.117 132.48 247.089L131.694 246.571C131.671 246.557 131.646 246.55 131.62 246.55C131.594 246.55 131.569 246.557 131.546 246.571L131.099 246.864C131.065 246.898 131.06 246.937 131.099 246.965Z" fill="#173B8E"/>
<path d="M123.092 240.871L123.583 241.181C123.594 241.181 123.604 241.186 123.611 241.194C123.619 241.202 123.623 241.214 123.623 241.226C123.623 241.238 123.619 241.249 123.611 241.258C123.604 241.266 123.594 241.271 123.583 241.271L123.092 241.586C123.071 241.597 123.047 241.603 123.023 241.603C123 241.603 122.976 241.597 122.955 241.586L122.915 241.558C122.895 241.547 122.874 241.541 122.851 241.541C122.829 241.541 122.807 241.547 122.788 241.558L122.296 241.89C122.275 241.901 122.251 241.907 122.228 241.907C122.204 241.907 122.18 241.901 122.159 241.89L121.859 241.693C121.82 241.665 121.82 241.625 121.859 241.603L122.35 241.293L122.449 241.231L122.517 241.181L122.586 241.136L122.989 240.871C123.022 240.856 123.059 240.856 123.092 240.871Z" fill="#173B8E"/>
<path d="M129.493 248.445L129.984 248.755C130.007 248.768 130.032 248.776 130.058 248.776C130.084 248.776 130.109 248.768 130.132 248.755L130.579 248.462C130.623 248.428 130.628 248.389 130.579 248.361L130.112 248.051C130.089 248.039 130.064 248.032 130.038 248.032C130.013 248.032 129.988 248.039 129.965 248.051L129.518 248.349C129.459 248.378 129.454 248.423 129.493 248.445Z" fill="#173B8E"/>
<path d="M128.83 248.012L129.321 248.321C129.345 248.335 129.371 248.342 129.397 248.342C129.424 248.342 129.45 248.335 129.473 248.321L129.916 248.029C129.96 248.029 129.965 247.956 129.916 247.927L129.424 247.624C129.402 247.61 129.376 247.603 129.351 247.603C129.325 247.603 129.3 247.61 129.277 247.624L128.83 247.916C128.796 247.939 128.791 247.984 128.83 248.012Z" fill="#173B8E"/>
<path d="M128.172 247.578L128.663 247.888C128.686 247.902 128.711 247.909 128.737 247.909C128.762 247.909 128.788 247.902 128.81 247.888L129.257 247.59C129.302 247.562 129.307 247.517 129.257 247.494L128.766 247.185C128.743 247.171 128.718 247.164 128.692 247.164C128.667 247.164 128.641 247.171 128.619 247.185L128.172 247.483C128.137 247.505 128.132 247.578 128.172 247.578Z" fill="#173B8E"/>
<path d="M122.547 243.854L123.038 244.163C123.061 244.177 123.086 244.184 123.112 244.184C123.137 244.184 123.163 244.177 123.185 244.163L123.632 243.871C123.677 243.871 123.681 243.798 123.632 243.769L123.141 243.46C123.118 243.446 123.091 243.439 123.065 243.439C123.038 243.439 123.012 243.446 122.989 243.46L122.547 243.753C122.517 243.786 122.512 243.831 122.547 243.854Z" fill="#173B8E"/>
<path d="M121.889 243.42L122.38 243.73C122.404 243.742 122.43 243.749 122.456 243.749C122.482 243.749 122.508 243.742 122.532 243.73L122.974 243.432C123.018 243.403 123.023 243.358 122.974 243.336L122.483 243.026C122.46 243.013 122.435 243.005 122.409 243.005C122.384 243.005 122.358 243.013 122.336 243.026L121.889 243.319C121.854 243.353 121.849 243.392 121.889 243.42Z" fill="#173B8E"/>
<path d="M121.23 242.982L121.721 243.291C121.744 243.305 121.769 243.312 121.795 243.312C121.821 243.312 121.846 243.305 121.869 243.291L122.316 242.999C122.36 242.965 122.365 242.925 122.316 242.897L121.825 242.588C121.802 242.575 121.776 242.569 121.751 242.569C121.725 242.569 121.7 242.575 121.677 242.588L121.23 242.886C121.181 242.914 121.181 242.959 121.23 242.982Z" fill="#173B8E"/>
<path d="M120.567 242.548L121.058 242.858C121.081 242.872 121.106 242.879 121.132 242.879C121.158 242.879 121.183 242.872 121.206 242.858L121.653 242.565C121.697 242.537 121.702 242.492 121.653 242.464L121.161 242.16C121.138 242.146 121.112 242.139 121.085 242.139C121.059 242.139 121.033 242.146 121.009 242.16L120.567 242.453C120.537 242.475 120.533 242.515 120.567 242.548Z" fill="#173B8E"/>
<path d="M127.341 247.016L127.98 247.432C128.002 247.446 128.028 247.453 128.053 247.453C128.079 247.453 128.104 247.446 128.127 247.432L128.574 247.14C128.618 247.111 128.623 247.066 128.574 247.038L127.936 246.616C127.913 246.602 127.888 246.595 127.862 246.595C127.836 246.595 127.811 246.602 127.788 246.616L127.341 246.909C127.307 246.954 127.302 247.016 127.341 247.016Z" fill="#173B8E"/>
<path d="M123.21 244.293L123.849 244.715C123.872 244.727 123.897 244.734 123.922 244.734C123.948 244.734 123.973 244.727 123.996 244.715L124.443 244.417C124.487 244.388 124.492 244.343 124.443 244.321L123.804 243.899C123.782 243.885 123.756 243.878 123.731 243.878C123.705 243.878 123.68 243.885 123.657 243.899L123.21 244.197C123.176 244.203 123.171 244.27 123.21 244.293Z" fill="#173B8E"/>
<path d="M124.04 244.844L127.15 246.898C127.173 246.91 127.198 246.917 127.223 246.917C127.249 246.917 127.274 246.91 127.297 246.898L127.744 246.599C127.788 246.571 127.793 246.526 127.744 246.504L124.635 244.444C124.612 244.431 124.587 244.423 124.561 244.423C124.535 244.423 124.51 244.431 124.487 244.444L124.04 244.737C124.006 244.765 124.001 244.816 124.04 244.844Z" fill="#173B8E"/>
<path d="M129.616 246.83L130.107 247.139C130.13 247.153 130.155 247.16 130.181 247.16C130.207 247.16 130.232 247.153 130.255 247.139L130.702 246.841C130.746 246.813 130.751 246.768 130.702 246.745L130.235 246.436C130.212 246.423 130.187 246.417 130.161 246.417C130.136 246.417 130.111 246.423 130.088 246.436L129.641 246.734C129.582 246.762 129.577 246.807 129.616 246.83Z" fill="#173B8E"/>
<path d="M128.953 246.391L129.444 246.701C129.468 246.715 129.494 246.722 129.52 246.722C129.547 246.722 129.573 246.715 129.596 246.701L130.038 246.408C130.083 246.38 130.088 246.335 130.038 246.307L129.547 245.998C129.524 245.984 129.499 245.977 129.473 245.977C129.448 245.977 129.422 245.984 129.4 245.998L128.953 246.29C128.918 246.324 128.913 246.369 128.953 246.391Z" fill="#173B8E"/>
<path d="M128.295 245.958L128.786 246.268C128.808 246.281 128.834 246.289 128.859 246.289C128.885 246.289 128.91 246.281 128.933 246.268L129.38 245.975C129.424 245.947 129.429 245.902 129.38 245.879L128.889 245.57C128.866 245.556 128.841 245.549 128.815 245.549C128.79 245.549 128.764 245.556 128.742 245.57L128.295 245.862C128.26 245.891 128.255 245.93 128.295 245.958Z" fill="#173B8E"/>
<path d="M127.631 245.519L128.122 245.828C128.145 245.842 128.17 245.849 128.196 245.849C128.222 245.849 128.247 245.842 128.27 245.828L128.717 245.53C128.761 245.502 128.766 245.457 128.717 245.434L128.226 245.125C128.203 245.111 128.178 245.104 128.152 245.104C128.126 245.104 128.101 245.111 128.078 245.125L127.631 245.423C127.597 245.451 127.592 245.496 127.631 245.519Z" fill="#173B8E"/>
<path d="M126.968 245.08L127.459 245.389C127.482 245.403 127.507 245.411 127.533 245.411C127.559 245.411 127.584 245.403 127.607 245.389L128.054 245.097C128.098 245.063 128.103 245.024 128.054 244.996L127.562 244.686C127.538 244.674 127.512 244.667 127.486 244.667C127.46 244.667 127.434 244.674 127.41 244.686L126.963 244.984C126.938 245.013 126.934 245.058 126.968 245.08Z" fill="#173B8E"/>
<path d="M126.31 244.647L126.801 244.956C126.824 244.97 126.849 244.977 126.875 244.977C126.9 244.977 126.926 244.97 126.948 244.956L127.395 244.664C127.44 244.636 127.444 244.591 127.395 244.562L126.904 244.253C126.881 244.24 126.856 244.234 126.83 244.234C126.805 244.234 126.78 244.24 126.757 244.253L126.31 244.545C126.275 244.574 126.27 244.619 126.31 244.647Z" fill="#173B8E"/>
<path d="M125.646 244.202L126.138 244.512C126.162 244.525 126.188 244.531 126.214 244.531C126.24 244.531 126.266 244.525 126.29 244.512L126.732 244.214C126.776 244.214 126.781 244.141 126.732 244.118L126.241 243.809C126.218 243.795 126.193 243.788 126.167 243.788C126.141 243.788 126.116 243.795 126.093 243.809L125.646 244.101C125.602 244.141 125.602 244.202 125.646 244.202Z" fill="#173B8E"/>
<path d="M124.988 243.769L125.479 244.079C125.502 244.093 125.527 244.1 125.553 244.1C125.579 244.1 125.604 244.093 125.627 244.079L126.074 243.781C126.118 243.752 126.123 243.707 126.074 243.685L125.583 243.375C125.56 243.363 125.534 243.356 125.509 243.356C125.483 243.356 125.458 243.363 125.435 243.375L124.988 243.674C124.954 243.702 124.949 243.747 124.988 243.769Z" fill="#173B8E"/>
<path d="M124.325 243.33L124.792 243.639C124.815 243.653 124.84 243.66 124.866 243.66C124.891 243.66 124.917 243.653 124.939 243.639L125.386 243.347C125.431 243.319 125.435 243.274 125.386 243.246L124.895 242.936C124.872 242.922 124.847 242.915 124.821 242.915C124.796 242.915 124.77 242.922 124.748 242.936L124.301 243.229C124.291 243.262 124.286 243.307 124.325 243.33Z" fill="#173B8E"/>
<path d="M123.662 242.897L124.153 243.207C124.176 243.22 124.203 243.228 124.229 243.228C124.256 243.228 124.282 243.22 124.305 243.207L124.752 242.914C124.796 242.886 124.801 242.841 124.752 242.818L124.286 242.509C124.262 242.495 124.236 242.488 124.209 242.488C124.183 242.488 124.157 242.495 124.133 242.509L123.686 242.801C123.637 242.824 123.637 242.869 123.662 242.897Z" fill="#173B8E"/>
<path d="M123.003 242.458L123.495 242.768C123.517 242.782 123.543 242.789 123.568 242.789C123.594 242.789 123.619 242.782 123.642 242.768L124.089 242.47C124.133 242.441 124.138 242.396 124.089 242.374L123.598 242.064C123.575 242.051 123.55 242.043 123.524 242.043C123.499 242.043 123.473 242.051 123.451 242.064L123.003 242.363C122.969 242.391 122.964 242.436 123.003 242.458Z" fill="#173B8E"/>
<path d="M122.34 242.019L122.832 242.329C122.855 242.343 122.881 242.35 122.908 242.35C122.934 242.35 122.96 242.343 122.984 242.329L123.426 242.036C123.47 242.002 123.475 241.963 123.426 241.935L122.935 241.625C122.912 241.613 122.887 241.606 122.861 241.606C122.836 241.606 122.81 241.613 122.787 241.625L122.34 241.924C122.306 241.952 122.301 241.997 122.34 242.019Z" fill="#173B8E"/>
<path d="M130.274 247.269L131.257 247.911C131.28 247.923 131.305 247.93 131.33 247.93C131.356 247.93 131.381 247.923 131.404 247.911L131.851 247.618C131.895 247.59 131.9 247.545 131.851 247.517L130.869 246.881C130.845 246.867 130.819 246.86 130.793 246.86C130.766 246.86 130.74 246.867 130.716 246.881L130.274 247.173C130.245 247.202 130.24 247.241 130.274 247.269Z" fill="#173B8E"/>
<path d="M129.302 247.471L129.793 247.781C129.815 247.795 129.841 247.802 129.866 247.802C129.892 247.802 129.917 247.795 129.94 247.781L130.387 247.483C130.431 247.455 130.436 247.41 130.387 247.387L129.921 247.078C129.897 247.065 129.872 247.059 129.847 247.059C129.821 247.059 129.796 247.065 129.773 247.078L129.326 247.376C129.267 247.404 129.262 247.449 129.302 247.471Z" fill="#173B8E"/>
<path d="M128.638 247.016L129.129 247.325C129.152 247.339 129.177 247.346 129.203 247.346C129.229 247.346 129.254 247.339 129.277 247.325L129.724 247.033C129.768 247.005 129.773 246.96 129.724 246.932L129.233 246.622C129.209 246.608 129.183 246.601 129.157 246.601C129.13 246.601 129.104 246.608 129.08 246.622L128.638 246.915C128.609 246.965 128.604 247.016 128.638 247.016Z" fill="#173B8E"/>
<path d="M127.98 246.6L128.471 246.909C128.494 246.923 128.519 246.93 128.545 246.93C128.571 246.93 128.596 246.923 128.619 246.909L129.066 246.617C129.11 246.617 129.115 246.543 129.066 246.521L128.574 246.211C128.552 246.198 128.526 246.19 128.501 246.19C128.475 246.19 128.45 246.198 128.427 246.211L127.98 246.504C127.946 246.527 127.941 246.572 127.98 246.6Z" fill="#173B8E"/>
<path d="M127.317 246.161L127.808 246.47C127.832 246.484 127.858 246.491 127.884 246.491C127.911 246.491 127.937 246.484 127.96 246.47L128.407 246.172C128.447 246.144 128.452 246.099 128.407 246.076L127.916 245.767C127.892 245.753 127.866 245.746 127.84 245.746C127.813 245.746 127.787 245.753 127.764 245.767L127.317 246.065C127.282 246.093 127.277 246.138 127.317 246.161Z" fill="#173B8E"/>
<path d="M126.658 245.722L127.125 246.031C127.148 246.045 127.173 246.052 127.199 246.052C127.225 246.052 127.25 246.045 127.273 246.031L127.72 245.739C127.764 245.705 127.769 245.666 127.72 245.638L127.228 245.328C127.205 245.316 127.18 245.309 127.155 245.309C127.129 245.309 127.104 245.316 127.081 245.328L126.634 245.626C126.624 245.654 126.619 245.699 126.658 245.722Z" fill="#173B8E"/>
<path d="M125.995 245.289L126.486 245.598C126.51 245.612 126.536 245.619 126.563 245.619C126.589 245.619 126.615 245.612 126.639 245.598L127.081 245.306C127.125 245.278 127.13 245.232 127.081 245.204L126.59 244.895C126.566 244.883 126.541 244.876 126.516 244.876C126.49 244.876 126.465 244.883 126.442 244.895L125.995 245.187C125.961 245.216 125.956 245.261 125.995 245.289Z" fill="#173B8E"/>
<path d="M125.332 244.85L125.823 245.159C125.846 245.172 125.872 245.178 125.897 245.178C125.923 245.178 125.948 245.172 125.971 245.159L126.418 244.861C126.462 244.833 126.467 244.788 126.418 244.766L125.927 244.456C125.903 244.442 125.877 244.435 125.85 244.435C125.824 244.435 125.798 244.442 125.774 244.456L125.332 244.749C125.303 244.766 125.298 244.822 125.332 244.85Z" fill="#173B8E"/>
<path d="M124.674 244.411L125.165 244.72C125.188 244.734 125.213 244.741 125.239 244.741C125.264 244.741 125.29 244.734 125.312 244.72L125.76 244.428C125.804 244.394 125.809 244.355 125.76 244.327L125.268 244.017C125.245 244.005 125.22 243.998 125.195 243.998C125.169 243.998 125.144 244.005 125.121 244.017L124.674 244.315C124.62 244.343 124.62 244.388 124.674 244.411Z" fill="#173B8E"/>
<path d="M124.011 243.977L124.477 244.286C124.501 244.299 124.527 244.305 124.554 244.305C124.58 244.305 124.606 244.299 124.63 244.286L125.077 243.994C125.121 243.966 125.126 243.921 125.077 243.893L124.585 243.583C124.562 243.569 124.536 243.562 124.509 243.562C124.483 243.562 124.457 243.569 124.433 243.583L123.986 243.876C123.981 243.904 123.976 243.949 124.011 243.977Z" fill="#173B8E"/>
<path d="M123.352 243.538L123.844 243.848C123.867 243.86 123.892 243.867 123.917 243.867C123.943 243.867 123.968 243.86 123.991 243.848L124.438 243.55C124.482 243.522 124.487 243.477 124.438 243.454L123.971 243.145C123.949 243.131 123.923 243.124 123.898 243.124C123.872 243.124 123.847 243.131 123.824 243.145L123.377 243.437C123.318 243.471 123.313 243.51 123.352 243.538Z" fill="#173B8E"/>
<path d="M122.689 243.077L123.181 243.386C123.204 243.4 123.23 243.407 123.257 243.407C123.283 243.407 123.309 243.4 123.333 243.386L123.775 243.088C123.819 243.06 123.824 243.015 123.775 242.993L123.284 242.683C123.261 242.671 123.236 242.664 123.21 242.664C123.185 242.664 123.159 242.671 123.136 242.683L122.689 242.981C122.655 243.032 122.655 243.077 122.689 243.077Z" fill="#173B8E"/>
<path d="M121.211 242.12L122.498 242.97C122.52 242.984 122.546 242.991 122.571 242.991C122.597 242.991 122.622 242.984 122.645 242.97L123.092 242.677C123.136 242.677 123.141 242.604 123.092 242.576L121.805 241.727C121.782 241.714 121.757 241.708 121.731 241.708C121.706 241.708 121.681 241.714 121.658 241.727L121.211 242.025C121.181 242.053 121.181 242.098 121.211 242.12Z" fill="#173B8E"/>
<path d="M129.965 247.91L130.598 248.332C130.622 248.345 130.648 248.352 130.674 248.352C130.701 248.352 130.727 248.345 130.751 248.332L131.193 248.034C131.237 248.006 131.242 247.961 131.193 247.939L130.554 247.517C130.531 247.503 130.506 247.496 130.48 247.496C130.455 247.496 130.429 247.503 130.407 247.517L129.96 247.809C129.93 247.843 129.925 247.882 129.965 247.91Z" fill="#173B8E"/>
<path d="M134.808 246.404L124.197 239.387V229.822L124.281 229.608L124.369 229.557C124.481 229.485 124.607 229.447 124.735 229.447C124.863 229.447 124.989 229.485 125.101 229.557L134.808 235.983C134.92 236.056 135.014 236.161 135.078 236.289C135.143 236.416 135.177 236.561 135.177 236.709V245.672C135.108 246.145 135.034 246.257 134.808 246.404Z" fill="#E5E5E5"/>
<path d="M133.836 237.141L124.197 230.135V229.815L124.281 229.601L124.369 229.55C124.481 229.478 124.607 229.44 124.735 229.44C124.863 229.44 124.989 229.478 125.101 229.55L134.808 235.976C134.927 236.052 135.024 236.165 135.088 236.302L133.836 237.141Z" fill="#E5E5E5"/>
<path d="M124.443 229.612L134.632 236.364C134.685 236.399 134.73 236.45 134.761 236.511C134.792 236.572 134.809 236.642 134.808 236.713V246.414L124.197 239.397V229.775C124.197 229.742 124.204 229.709 124.218 229.68C124.232 229.651 124.253 229.627 124.278 229.611C124.303 229.594 124.332 229.585 124.361 229.585C124.39 229.586 124.418 229.595 124.443 229.612V229.612Z" fill="#DCEEFF"/>
<path d="M124.443 229.612L134.632 236.364C134.685 236.399 134.73 236.45 134.761 236.511C134.792 236.572 134.809 236.642 134.808 236.713V246.414L124.197 239.397V229.775C124.197 229.742 124.204 229.709 124.218 229.68C124.232 229.651 124.253 229.627 124.278 229.611C124.303 229.594 124.332 229.585 124.361 229.585C124.39 229.586 124.418 229.595 124.443 229.612V229.612Z" fill="#F4F4F4"/>
<path d="M134.808 246.402V246.059L124.197 239.037V239.385L134.808 246.402Z" fill="#DBDBDB"/>
<path d="M124.472 238.879V230.113L124.605 230.197V238.801L124.472 238.879Z" fill="#1E3779"/>
<path d="M124.62 230.135V238.739L134.484 245.249V236.662L124.62 230.135Z" fill="#173B8E"/>
<path d="M124.472 238.88L134.469 245.485V245.311L124.605 238.801L124.472 238.88Z" fill="#031F60"/>
<path d="M113.046 228.093C112.795 228.813 113.439 229.691 115.148 230.31C116.858 230.929 117.015 230.136 117.015 230.136C118.154 230.718 119.264 231.372 120.341 232.094C121.368 232.921 121.815 235.295 121.957 239.313C122.119 243.961 122.134 250.859 121.996 252.046C121.996 252.046 120.081 254.241 117.624 254.01C115.168 253.779 111.036 251.287 110.034 249.368C110.034 245.288 110.476 244.624 109.902 242.278C108.58 236.905 107.888 234.704 108.526 231.131C109.057 228.189 109.799 227.823 110.811 227.851C111.559 227.886 112.305 227.967 113.046 228.093V228.093Z" fill="#F4F4F4"/>
<path d="M126 244.298C123.981 244.861 123.51 243.426 123.244 242.216C122.606 239.302 122.262 236.663 121.771 235.008C121.206 233.056 120.616 232.758 119.806 232.364C118.823 231.919 117.993 232.859 118.332 235.346C118.728 238.231 119.346 241.071 120.179 243.831C120.429 244.743 120.994 246.358 121.834 247.134C122.876 248.096 124.438 248.057 126.811 247.382C127.793 247.095 128.928 246.403 130.839 245.378C131.33 245.108 131.753 244.923 132.735 244.399C133.726 243.896 134.595 243.124 135.265 242.149C135.781 241.293 135.85 240.894 135.757 240.697C135.663 240.5 135.393 240.506 135.118 240.866C134.714 241.478 134.214 241.999 133.644 242.402C133.644 242.402 134.283 241.654 134.627 241.164C134.938 240.731 135.195 240.25 135.388 239.735C135.575 239.234 135.197 238.559 134.897 238.913C134.597 239.268 134.474 239.634 133.954 240.348C133.681 240.731 133.367 241.073 133.02 241.367C133.344 240.865 133.631 240.335 133.88 239.78C134.105 239.349 134.214 238.852 134.194 238.351C134.194 238.086 133.86 237.788 133.556 238.272C133.264 238.952 132.901 239.589 132.475 240.168C132.013 240.731 131.625 241.029 131.61 240.877C131.596 240.725 131.89 240.427 132.053 239.791C132.215 239.155 132.053 238.474 131.748 238.401C131.443 238.328 131.497 238.351 131.257 238.964C130.917 239.577 130.611 240.214 130.343 240.871C130.186 241.484 129.901 242.044 129.513 242.503C129.012 243.077 127.916 243.747 126 244.298Z" fill="#FFCEA9"/>
<path d="M119.054 231.964C120.4 231.739 121.348 232.431 121.943 234.778C122.537 237.124 122.955 239.032 122.955 239.032C122.417 239.901 121.611 240.504 120.7 240.72C119.088 241.164 118.509 240.287 118.509 240.287C118.509 240.287 118.062 237.833 117.787 236.168C117.512 234.502 117.389 232.246 119.054 231.964Z" fill="#EDEDED"/>
<path d="M119.707 220.008C119.707 220.008 121.834 216.305 117.251 215.551C113.925 214.988 111.793 217.453 111.543 220.103C111.307 222.641 112.672 225.274 113.655 226.321C114.623 226.597 115.646 226.455 116.529 225.921C116.584 225.231 116.605 224.538 116.593 223.845C116.593 223.845 114.957 219.94 119.707 220.008Z" fill="#1F1F1F"/>
<path d="M128.938 266.856V255.738L121.23 260.892L124.197 267.925L128.938 266.856Z" fill="#C4C7D6"/>
<path d="M123.888 256.38L126.845 254.41L128.938 255.8L125.873 257.792L123.888 256.38Z" fill="#D6D8E5"/>
<path opacity="0.4" d="M86.6704 194.479L73.5293 185.65C72.0555 184.649 72.2226 182.899 73.9469 181.745L80.628 177.244C82.3523 176.118 84.9559 175.967 86.4493 176.968L99.6101 185.797C101.084 186.792 100.912 188.542 99.1925 189.702L92.5114 194.203C90.7675 195.356 88.1589 195.48 86.6704 194.479Z" fill="#D6D8E5"/>
<path d="M103.005 185.775V164.432L74.895 160.758V182.235C74.9004 182.603 74.9952 182.961 75.1688 183.27C75.3424 183.58 75.5878 183.827 75.8775 183.985L89.053 192.814C90.5268 193.815 93.155 193.691 94.8744 192.532L101.555 188.031C102.538 187.378 103.029 186.54 102.98 185.78L103.005 185.775Z" fill="#D6D8E5"/>
<path d="M102.975 166.762V164.432H100.814L88.8172 156.375C87.3434 155.373 84.7152 155.502 82.9958 156.656L76.3147 161.157C76.1942 161.236 76.0777 161.322 75.966 161.416L74.895 160.758C74.895 160.758 74.895 163.217 74.895 163.301C74.9024 163.667 74.9981 164.024 75.1715 164.332C75.3449 164.64 75.5892 164.887 75.8775 165.045L89.053 173.868C90.5268 174.87 93.155 174.74 94.8744 173.587L101.555 169.085C102.538 168.416 103.029 167.549 102.975 166.739V166.762Z" fill="#EDF0F9"/>
<path d="M89.0531 171.336L75.8972 162.507C74.4235 161.506 74.5905 159.756 76.3148 158.602L82.9959 154.101C84.7153 152.976 87.3238 152.818 88.8173 153.82L101.978 162.648C103.452 163.65 103.28 165.4 101.556 166.553L94.8744 171.055C93.1796 172.208 90.5465 172.337 89.0531 171.336Z" fill="#E2E5F2"/>
<path d="M86.0905 159.283V158.434H85.6435L85.501 158.332C85.0614 158.072 84.5737 157.936 84.0788 157.936C83.5839 157.936 83.0962 158.072 82.6566 158.332C82.5726 158.387 82.4936 158.451 82.4208 158.524L82.072 158.434V159.283C82.0838 159.489 82.1445 159.687 82.2475 159.855C82.3506 160.024 82.4921 160.157 82.6566 160.24C83.0969 160.498 83.5843 160.632 84.0788 160.632C84.5733 160.632 85.0607 160.498 85.501 160.24C85.6639 160.154 85.8042 160.02 85.9077 159.852C86.0112 159.684 86.0742 159.488 86.0905 159.283V159.283Z" fill="#051E50"/>
<path d="M84.0813 159.784C85.1909 159.784 86.0905 159.18 86.0905 158.434C86.0905 157.688 85.1909 157.083 84.0813 157.083C82.9716 157.083 82.072 157.688 82.072 158.434C82.072 159.18 82.9716 159.784 84.0813 159.784Z" fill="#002E87"/>
<path d="M90.9445 162.485V161.635H90.4975L90.3599 161.534C89.9203 161.274 89.4326 161.138 88.9377 161.138C88.4428 161.138 87.9551 161.274 87.5155 161.534C87.4292 161.587 87.3485 161.651 87.2748 161.725L86.926 161.635V162.485C86.9423 162.69 87.0054 162.886 87.1088 163.054C87.2123 163.222 87.3526 163.356 87.5155 163.442C87.9558 163.699 88.4432 163.834 88.9377 163.834C89.4322 163.834 89.9196 163.699 90.3599 163.442C90.5244 163.359 90.6659 163.226 90.769 163.057C90.8721 162.888 90.9328 162.691 90.9445 162.485Z" fill="#031F60"/>
<path d="M88.9353 162.986C90.0449 162.986 90.9445 162.381 90.9445 161.636C90.9445 160.89 90.0449 160.285 88.9353 160.285C87.8256 160.285 86.926 160.89 86.926 161.636C86.926 162.381 87.8256 162.986 88.9353 162.986Z" fill="#002E87"/>
<path d="M95.8078 165.906V165.056H95.3559L95.2183 164.955C94.7787 164.695 94.291 164.559 93.7961 164.559C93.3012 164.559 92.8135 164.695 92.3739 164.955C92.2887 165.01 92.2081 165.074 92.1332 165.146L91.7844 165.056V165.906C91.7997 166.111 91.8624 166.308 91.966 166.476C92.0696 166.644 92.2104 166.777 92.3739 166.863C92.8135 167.123 93.3012 167.259 93.7961 167.259C94.291 167.259 94.7787 167.123 95.2183 166.863C95.3818 166.777 95.5227 166.644 95.6263 166.476C95.7299 166.308 95.7925 166.111 95.8078 165.906V165.906Z" fill="#051E50"/>
<path d="M93.7937 166.407C94.9033 166.407 95.8029 165.802 95.8029 165.056C95.8029 164.311 94.9033 163.706 93.7937 163.706C92.684 163.706 91.7844 164.311 91.7844 165.056C91.7844 165.802 92.684 166.407 93.7937 166.407Z" fill="#002E87"/>
<defs>
<filter id="filter0_f" x="0.800507" y="117.204" width="331.959" height="810.902" filterUnits="userSpaceOnUse" color-interpolation-filters="sRGB">
<feFlood flood-opacity="0" result="BackgroundImageFix"/>
<feBlend mode="normal" in="SourceGraphic" in2="BackgroundImageFix" result="shape"/>
<feGaussianBlur stdDeviation="9.09975" result="effect1_foregroundBlur"/>
</filter>
<filter id="filter1_d" x="159.044" y="229.372" width="158.428" height="686.347" filterUnits="userSpaceOnUse" color-interpolation-filters="sRGB">
<feFlood flood-opacity="0" result="BackgroundImageFix"/>
<feColorMatrix in="SourceAlpha" type="matrix" values="0 0 0 0 0 0 0 0 0 0 0 0 0 0 0 0 0 0 127 0"/>
<feOffset dy="2.91192"/>
<feGaussianBlur stdDeviation="1.45596"/>
<feColorMatrix type="matrix" values="0 0 0 0 0 0 0 0 0 0 0 0 0 0 0 0 0 0 0.25 0"/>
<feBlend mode="normal" in2="BackgroundImageFix" result="effect1_dropShadow"/>
<feBlend mode="normal" in="SourceGraphic" in2="effect1_dropShadow" result="shape"/>
</filter>
<filter id="filter2_d" x="159.043" y="225.071" width="158.428" height="686.347" filterUnits="userSpaceOnUse" color-interpolation-filters="sRGB">
<feFlood flood-opacity="0" result="BackgroundImageFix"/>
<feColorMatrix in="SourceAlpha" type="matrix" values="0 0 0 0 0 0 0 0 0 0 0 0 0 0 0 0 0 0 127 0"/>
<feOffset dy="2.91192"/>
<feGaussianBlur stdDeviation="1.45596"/>
<feColorMatrix type="matrix" values="0 0 0 0 0 0 0 0 0 0 0 0 0 0 0 0 0 0 0.25 0"/>
<feBlend mode="normal" in2="BackgroundImageFix" result="effect1_dropShadow"/>
<feBlend mode="normal" in="SourceGraphic" in2="effect1_dropShadow" result="shape"/>
</filter>
<linearGradient id="paint0_linear" x1="23.7188" y1="-60.3746" x2="182.221" y2="253.417" gradientUnits="userSpaceOnUse">
<stop stop-color="#6F7EEB"/>
<stop offset="1" stop-color="#F859D6"/>
</linearGradient>
<linearGradient id="paint1_linear" x1="-1.10658e-05" y1="-404.882" x2="502.503" y2="219.249" gradientUnits="userSpaceOnUse">
<stop stop-color="#AECAFF"/>
<stop offset="1" stop-color="#D62EB3"/>
</linearGradient>
<linearGradient id="paint2_linear" x1="160.196" y1="939.528" x2="333.875" y2="-431.811" gradientUnits="userSpaceOnUse">
<stop offset="0.241621" stop-color="#588EF7"/>
<stop offset="0.9999" stop-color="#D62EB3"/>
<stop offset="1" stop-color="#FAA5E7"/>
</linearGradient>
<linearGradient id="paint3_linear" x1="23.7188" y1="-60.3746" x2="182.221" y2="253.417" gradientUnits="userSpaceOnUse">
<stop stop-color="#6F7EEB"/>
<stop offset="1" stop-color="#F859D6"/>
</linearGradient>
<linearGradient id="paint4_linear" x1="160.196" y1="939.528" x2="333.875" y2="-431.811" gradientUnits="userSpaceOnUse">
<stop offset="0.241621" stop-color="#588EF7"/>
<stop offset="0.9999" stop-color="#D62EB3"/>
<stop offset="1" stop-color="#FAA5E7"/>
</linearGradient>
<linearGradient id="paint5_linear" x1="-1.1034e-05" y1="-403.719" x2="501.059" y2="218.62" gradientUnits="userSpaceOnUse">
<stop stop-color="#AECAFF"/>
<stop offset="1" stop-color="#D62EB3"/>
</linearGradient>
</defs>
</svg>
